# File created by Blade
# Date/Time:  Thu Sep 25 18:39:44 2014
# Frame Rate: 120.000 fps
#------------------------------------------------------
:FULLY-SPECIFIED
:DEGREES
897
root -1.018984 33.242420 -2.247908 5.522974 4.298113 -0.368146
Spine -11.465681 5.436916 -0.371602
Head 17.094964 -4.036126 4.075161
LeftShoulder -12.800463 2.591251 39.296969
LeftArm 161.065867 -38.121852 -124.662599
LeftForeArm -51.483733 -0.000000 124.880342
LeftHand -11.747223 0.000000 3.909825
LeftHandThumb1 -26.253704 0.000000 33.147579
RightShoulder -11.932217 25.835744 -51.805402
RightArm 72.009417 32.534634 45.174548
RightForeArm 58.985336 -0.000000 83.836306
RightHand 4.260135 -0.000000 24.694469
RightHandThumb1 -24.326973 -0.000000 -32.862282
LeftUpLeg 1.383599 6.254484 1.867570
LeftLeg -1.340577 -0.000000 0.000000
LeftFoot -7.032928 1.004559 -11.569202
LeftToeBase 10.058135 -0.000000 -0.000000
RightUpLeg 0.813067 -6.932450 -0.195153
RightLeg 0.702060 -0.000000 -0.000000
RightFoot -6.271557 -2.527566 0.613268
RightToeBase -0.920955 -0.000000 0.000000
898
root -1.022837 33.242457 -2.238241 5.505350 4.323705 -0.355251
Spine -11.459965 5.374926 -0.426921
Head 17.145942 -3.877538 4.236156
LeftShoulder -12.833257 2.514825 39.419936
LeftArm 161.284051 -37.926123 -124.814331
LeftForeArm -51.546682 -0.000000 124.791229
LeftHand -11.751113 0.000000 3.696057
LeftHandThumb1 -26.253704 0.000000 33.147579
RightShoulder -11.930585 26.030488 -51.964025
RightArm 71.865240 32.589521 45.174599
RightForeArm 58.979841 -0.000000 84.082034
RightHand 4.225554 -0.000000 24.901357
RightHandThumb1 -24.326973 -0.000000 -32.862282
LeftUpLeg 1.421704 6.230710 1.870167
LeftLeg -1.353277 -0.000000 0.000000
LeftFoot -7.022329 0.984253 -11.601737
LeftToeBase 10.088167 -0.000000 -0.000000
RightUpLeg 0.860973 -6.910321 -0.201432
RightLeg 0.683735 -0.000000 -0.000000
RightFoot -6.282537 -2.571165 0.626980
RightToeBase -0.903560 -0.000000 0.000000
899
root -1.025443 33.243383 -2.227342 5.479793 4.340502 -0.343209
Spine -11.449600 5.311227 -0.471690
Head 17.209128 -3.677137 4.403840
LeftShoulder -13.025174 3.049645 39.232817
LeftArm 161.796041 -37.239119 -124.872966
LeftForeArm -51.434567 -0.000000 124.636383
LeftHand -11.501860 -0.000000 3.580470
LeftHandThumb1 -26.253704 0.000000 33.147579
RightShoulder -11.858620 26.058577 -51.983201
RightArm 71.881945 32.794834 45.113627
RightForeArm 59.351129 -0.000000 84.254157
RightHand 4.274478 -0.000000 25.008435
RightHandThumb1 -24.326973 -0.000000 -32.862282
LeftUpLeg 1.468057 6.229540 1.871364
LeftLeg -1.360830 -0.000000 0.000000
LeftFoot -6.994094 0.963956 -11.596175
LeftToeBase 10.019836 -0.000000 -0.000000
RightUpLeg 0.918365 -6.904068 -0.211035
RightLeg 0.662702 -0.000000 -0.000000
RightFoot -6.282058 -2.593763 0.627445
RightToeBase -0.903541 -0.000000 0.000000
900
root -1.028303 33.244055 -2.216969 5.458249 4.352296 -0.340546
Spine -11.440167 5.258005 -0.506223
Head 17.260573 -3.530818 4.540086
LeftShoulder -13.131116 3.122322 39.240905
LeftArm 162.012687 -36.638597 -124.793965
LeftForeArm -51.386872 0.000000 124.508924
LeftHand -12.146847 -0.000000 3.259806
LeftHandThumb1 -26.253704 0.000000 33.147579
RightShoulder -11.798890 25.952859 -51.934356
RightArm 72.012389 33.118421 45.024689
RightForeArm 60.146431 -0.000000 84.328772
RightHand 4.191534 0.000000 25.369337
RightHandThumb1 -24.326973 -0.000000 -32.862282
LeftUpLeg 1.504692 6.227431 1.882980
LeftLeg -1.354975 -0.000000 0.000000
LeftFoot -6.996071 0.932799 -11.647541
LeftToeBase 10.093346 -0.000000 -0.000000
RightUpLeg 0.965294 -6.908134 -0.210224
RightLeg 0.652427 -0.000000 -0.000000
RightFoot -6.276935 -2.608326 0.616778
RightToeBase -0.866097 -0.000000 0.000000
901
root -1.031218 33.244984 -2.206317 5.434860 4.356122 -0.339742
Spine -11.432660 5.236976 -0.549016
Head 17.316004 -3.409519 4.698083
LeftShoulder -13.263380 3.291320 39.196091
LeftArm 162.264136 -35.991770 -124.683679
LeftForeArm -51.375187 -0.000000 124.366297
LeftHand -12.718664 -0.000000 3.027947
LeftHandThumb1 -26.253704 0.000000 33.147579
RightShoulder -11.773441 25.868105 -51.896614
RightArm 72.103222 33.394333 44.964924
RightForeArm 60.820618 -0.000000 84.381251
RightHand 4.225738 -0.000000 25.675973
RightHandThumb1 -24.326973 -0.000000 -32.862282
LeftUpLeg 1.546053 6.210101 1.893058
LeftLeg -1.356430 -0.000000 0.000000
LeftFoot -6.991248 0.941186 -11.636454
LeftToeBase 10.057717 -0.000000 -0.000000
RightUpLeg 1.022345 -6.919652 -0.211075
RightLeg 0.622121 -0.000000 -0.000000
RightFoot -6.261037 -2.592121 0.632700
RightToeBase -0.896256 -0.000000 0.000000
902
root -1.033968 33.245784 -2.194600 5.410707 4.366388 -0.342552
Spine -11.431231 5.224474 -0.576425
Head 17.392627 -3.327528 4.777808
LeftShoulder -13.383365 3.520353 39.109789
LeftArm 162.565477 -35.356179 -124.599744
LeftForeArm -51.369695 -0.000000 124.215635
LeftHand -13.283610 0.000000 2.756050
LeftHandThumb1 -26.253704 0.000000 33.147579
RightShoulder -11.750655 25.932740 -51.954577
RightArm 71.990948 33.579904 44.863929
RightForeArm 61.351880 0.000000 84.484489
RightHand 4.285505 -0.000000 25.843604
RightHandThumb1 -24.326973 -0.000000 -32.862282
LeftUpLeg 1.587417 6.184491 1.909177
LeftLeg -1.352513 -0.000000 0.000000
LeftFoot -6.985345 0.945320 -11.650880
LeftToeBase 9.991249 -0.000000 -0.000000
RightUpLeg 1.087163 -6.946195 -0.206031
RightLeg 0.580121 -0.000000 -0.000000
RightFoot -6.237832 -2.572770 0.638788
RightToeBase -0.913381 -0.000000 0.000000
903
root -1.036437 33.247022 -2.182636 5.395997 4.349511 -0.353752
Spine -11.455460 5.254848 -0.590640
Head 17.504997 -3.235985 4.841253
LeftShoulder -13.466551 3.612991 39.070258
LeftArm 162.733276 -34.870463 -124.485067
LeftForeArm -51.419617 -0.000000 124.067252
LeftHand -13.901551 -0.000000 2.500284
LeftHandThumb1 -26.253704 0.000000 33.147579
RightShoulder -11.752695 25.998234 -52.026102
RightArm 71.882422 33.733240 44.819174
RightForeArm 61.734287 -0.000000 84.573734
RightHand 4.347485 0.000000 25.955263
RightHandThumb1 -24.326973 -0.000000 -32.862282
LeftUpLeg 1.622024 6.174522 1.929548
LeftLeg -1.348142 -0.000000 0.000000
LeftFoot -6.995799 0.962062 -11.673084
LeftToeBase 10.035086 -0.000000 -0.000000
RightUpLeg 1.113338 -7.014149 -0.197082
RightLeg 0.594892 -0.000000 -0.000000
RightFoot -6.241421 -2.488479 0.615895
RightToeBase -0.840992 -0.000000 0.000000
904
root -1.039244 33.248026 -2.170950 5.380884 4.334446 -0.364904
Spine -11.479535 5.273797 -0.605942
Head 17.625416 -3.126101 4.920402
LeftShoulder -13.571134 3.809293 38.983947
LeftArm 162.950681 -34.372905 -124.350308
LeftForeArm -51.499757 -0.000000 123.916656
LeftHand -14.382350 -0.000000 2.312760
LeftHandThumb1 -26.253704 0.000000 33.147579
RightShoulder -11.743673 25.965025 -52.046383
RightArm 71.912328 33.967053 44.864642
RightForeArm 62.047980 -0.000000 84.627384
RightHand 4.325720 -0.000000 25.964730
RightHandThumb1 -24.326973 -0.000000 -32.862282
LeftUpLeg 1.654806 6.153066 1.950154
LeftLeg -1.340542 -0.000000 0.000000
LeftFoot -7.007261 0.988178 -11.679404
LeftToeBase 10.009243 -0.000000 -0.000000
RightUpLeg 1.160498 -7.027701 -0.185413
RightLeg 0.566015 -0.000000 -0.000000
RightFoot -6.213859 -2.466261 0.611150
RightToeBase -0.917610 -0.000000 0.000000
905
root -1.042495 33.248475 -2.160731 5.379264 4.309932 -0.374277
Spine -11.522314 5.303093 -0.630572
Head 17.754479 -3.003918 5.020120
LeftShoulder -13.618710 3.737342 39.046058
LeftArm 162.940401 -34.329794 -124.299674
LeftForeArm -51.734454 -0.000000 123.824952
LeftHand -14.558428 0.000000 2.378713
LeftHandThumb1 -26.253704 0.000000 33.147579
RightShoulder -11.747064 25.961441 -52.103372
RightArm 71.871704 34.161495 44.949289
RightForeArm 62.363779 -0.000000 84.704322
RightHand 4.350928 0.000000 25.924200
RightHandThumb1 -24.326973 -0.000000 -32.862282
LeftUpLeg 1.669889 6.118316 1.966231
LeftLeg -1.327372 -0.000000 0.000000
LeftFoot -7.031469 1.026655 -11.712227
LeftToeBase 10.037900 -0.000000 -0.000000
RightUpLeg 1.215216 -6.973635 -0.177804
RightLeg 0.485097 -0.000000 -0.000000
RightFoot -6.173167 -2.456027 0.666653
RightToeBase -0.903254 -0.000000 0.000000
906
root -1.046084 33.248589 -2.148700 5.359539 4.280955 -0.384119
Spine -11.527153 5.329786 -0.658732
Head 17.903895 -2.858424 5.144150
LeftShoulder -13.643303 3.477680 39.209984
LeftArm 162.840819 -34.464904 -124.304596
LeftForeArm -52.050907 -0.000000 123.737104
LeftHand -14.772861 -0.000000 2.375321
LeftHandThumb1 -26.253704 0.000000 33.147579
RightShoulder -11.794374 25.923608 -52.147478
RightArm 71.888158 34.376920 45.030449
RightForeArm 62.723454 0.000000 84.753470
RightHand 4.468543 -0.000000 25.883708
RightHandThumb1 -24.326973 -0.000000 -32.862282
LeftUpLeg 1.714816 6.105891 1.985917
LeftLeg -1.327109 -0.000000 0.000000
LeftFoot -7.054896 1.054377 -11.760795
LeftToeBase 10.059780 -0.000000 -0.000000
RightUpLeg 1.267355 -6.961368 -0.168285
RightLeg 0.454804 -0.000000 -0.000000
RightFoot -6.158114 -2.427772 0.692167
RightToeBase -0.904756 -0.000000 0.000000
907
root -1.049205 33.248853 -2.137352 5.345876 4.243058 -0.391376
Spine -11.559998 5.377020 -0.696785
Head 18.008414 -2.758798 5.320426
LeftShoulder -13.690334 3.512590 39.237041
LeftArm 162.883624 -34.237707 -124.185582
LeftForeArm -52.140958 -0.000000 123.624451
LeftHand -15.174879 -0.000000 2.217038
LeftHandThumb1 -26.253704 0.000000 33.147579
RightShoulder -11.812504 25.913600 -52.205979
RightArm 71.782612 34.587377 45.107361
RightForeArm 63.077086 0.000000 84.881248
RightHand 4.287756 -0.000000 25.749358
RightHandThumb1 -24.326973 -0.000000 -32.862282
LeftUpLeg 1.750134 6.096360 1.999416
LeftLeg -1.322993 -0.000000 0.000000
LeftFoot -7.075527 1.096617 -11.739400
LeftToeBase 10.068537 -0.000000 -0.000000
RightUpLeg 1.306757 -6.950356 -0.160788
RightLeg 0.433116 -0.000000 -0.000000
RightFoot -6.155558 -2.413022 0.666674
RightToeBase -0.904527 -0.000000 0.000000
908
root -1.052230 33.248699 -2.125011 5.323579 4.205847 -0.406655
Spine -11.568409 5.412966 -0.725511
Head 18.066982 -2.597489 5.503761
LeftShoulder -13.726096 3.377415 39.361106
LeftArm 162.812991 -34.161251 -124.086467
LeftForeArm -52.247779 -0.000000 123.542672
LeftHand -15.605430 0.000000 2.171089
LeftHandThumb1 -26.253704 0.000000 33.147579
RightShoulder -11.797326 25.637563 -52.173858
RightArm 71.921435 35.022267 45.235615
RightForeArm 63.415013 -0.000000 84.975935
RightHand 4.513076 -0.000000 25.743165
RightHandThumb1 -24.326973 -0.000000 -32.862282
LeftUpLeg 1.796831 6.109086 2.022546
LeftLeg -1.318883 -0.000000 0.000000
LeftFoot -7.093322 1.116079 -11.760560
LeftToeBase 10.026740 -0.000000 -0.000000
RightUpLeg 1.349331 -6.972698 -0.147855
RightLeg 0.426403 -0.000000 -0.000000
RightFoot -6.154675 -2.352254 0.684031
RightToeBase -0.881129 -0.000000 0.000000
